<svg xmlns="http://www.w3.org/2000/svg" xmlns:xlink="http://www.w3.org/1999/xlink" width="500" zoomAndPan="magnify" viewBox="0 0 375 374.999991" height="500" preserveAspectRatio="xMidYMid meet" version="1.0"><defs><g/></defs><rect x="-37.5" width="450" fill="rgb(100%, 100%, 100%)" y="-37.499999" height="449.999989" fill-opacity="1"/><rect x="-37.5" width="450" fill="rgb(0%, 0%, 0%)" y="-37.499999" height="449.999989" fill-opacity="1"/><rect x="-37.5" width="450" fill="rgb(100%, 100%, 100%)" y="-37.499999" height="449.999989" fill-opacity="1"/><rect x="-37.5" width="450" fill="rgb(0%, 0%, 0%)" y="-37.499999" height="449.999989" fill-opacity="1"/><g fill="rgb(1.179504%, 59.609985%, 61.959839%)" fill-opacity="1"><g transform="translate(28.300784, 217.499986)"><g><path d="M 19.597656 -20.398438 L 19.597656 -49.597656 C 19.597656 -54.597656 23.398438 -58.398438 28.398438 -58.398438 L 125.996094 -58.398438 L 125.996094 -70 L 28.398438 -70 C 16.597656 -70 8 -61.398438 8 -49.597656 L 8 -20.398438 C 8 -8.601562 16.597656 0 28.398438 0 L 125.996094 0 L 125.996094 -11.601562 L 28.398438 -11.601562 C 23.398438 -11.601562 19.597656 -15.398438 19.597656 -20.398438 Z M 19.597656 -20.398438 "/></g></g></g><g fill="rgb(1.179504%, 59.609985%, 61.959839%)" fill-opacity="1"><g transform="translate(162.295618, 217.499986)"><g><path d="M 86.398438 -49.597656 L 86.398438 0 L 97.996094 0 L 97.996094 -49.597656 C 97.996094 -54.597656 101.796875 -58.398438 106.796875 -58.398438 L 155.996094 -58.398438 C 160.996094 -58.398438 164.796875 -54.597656 164.796875 -49.597656 L 164.796875 0 L 176.394531 0 L 176.394531 -49.597656 C 176.394531 -61.398438 167.796875 -70 155.996094 -70 L 106.796875 -70 C 100.898438 -70 95.796875 -67.898438 92.199219 -64.199219 C 88.597656 -67.898438 83.496094 -70 77.597656 -70 L 28.398438 -70 C 16.597656 -70 8 -61.398438 8 -49.597656 L 8 0 L 19.597656 0 L 19.597656 -49.597656 C 19.597656 -54.597656 23.398438 -58.398438 28.398438 -58.398438 L 77.597656 -58.398438 C 82.597656 -58.398438 86.398438 -54.597656 86.398438 -49.597656 Z M 86.398438 -49.597656 "/></g></g></g></svg>